<svg width="88" height="28" viewBox="0 0 88 28" fill="none" xmlns="http://www.w3.org/2000/svg">
<g id="Warstwa 2">
<g id="Warstwa 1">
<path id="Vector" d="M44.0792 26.9895C44.0437 27.0389 43.9953 27.0776 43.9393 27.1013C43.8833 27.1251 43.8219 27.133 43.7617 27.1242H37.4112C37.3086 27.1358 37.2051 27.112 37.1178 27.0569C37.0431 26.9352 37.011 26.7922 37.0264 26.6503V14.5123C37.0264 13.4948 36.8219 12.7034 36.3937 12.1068C35.9655 11.5102 35.3088 11.224 34.3827 11.224C33.6975 11.2004 33.0255 11.4164 32.4824 11.835C32.0491 12.1487 31.7151 12.5804 31.5202 13.0786V26.482C31.5349 26.6509 31.5119 26.8209 31.4529 26.9799C31.4072 27.0689 31.3181 27.1146 31.1353 27.1146H24.7777C24.675 27.1261 24.5715 27.1024 24.4842 27.0472C24.4096 26.9256 24.3774 26.7826 24.3928 26.6407V14.5123C24.3928 13.336 24.1522 12.4989 23.6254 11.9793C23.1258 11.4859 22.4513 11.2101 21.7492 11.212C21.047 11.1878 20.3589 11.4118 19.8055 11.8446C19.2619 12.2728 18.9684 12.6817 18.877 13.0642V26.6263C18.877 26.9438 18.788 27.0785 18.5835 27.0785H12.0887C11.9937 27.0906 11.8975 27.0666 11.8193 27.0112C11.7526 26.8466 11.7286 26.6679 11.7496 26.4916V6.32884C11.7414 6.17664 11.7568 6.02409 11.7953 5.87661C11.8193 5.83091 11.9083 5.80926 12.0358 5.80926H18.4921C18.6017 5.79616 18.7126 5.81985 18.8072 5.87661C18.853 5.92231 18.8746 6.05702 18.8746 6.32884V8.52264C18.8746 8.52264 19.1464 8.09206 19.1921 8.0247C19.7374 7.2487 20.4398 6.59604 21.2537 6.10911C22.0677 5.62217 22.9749 5.31184 23.9165 5.19826C24.2163 5.15964 24.5187 5.14436 24.8209 5.15256C26.0481 5.14252 27.2638 5.3883 28.3907 5.8742C29.5468 6.40646 30.4989 7.29953 31.1041 8.4192C31.1222 8.45931 31.1448 8.49724 31.1714 8.53226C31.5346 7.78416 32.302 6.94945 33.4783 6.24705C34.5636 5.62249 35.7745 5.24787 37.0229 5.1505C38.2713 5.05312 39.5257 5.23544 40.6947 5.68417C41.3419 5.94462 41.9299 6.33304 42.4234 6.82615C42.917 7.31926 43.3059 7.90691 43.5669 8.55391C43.9493 9.43432 44.1321 10.5432 44.1321 11.9216V26.4555C44.1622 26.6377 44.1465 26.8245 44.0864 26.9991" fill="currentColor"/>
<path id="Vector_2" d="M62.1437 24.7957C62.0764 24.4132 62.0307 23.9826 61.9633 23.5545C61.896 23.1263 61.8262 22.7174 61.7829 22.3325C61.7508 22.0816 61.705 21.8327 61.6458 21.5868C61.5568 21.1346 61.285 20.9758 60.8544 21.0888C59.7695 21.315 58.9108 21.226 58.2781 20.7954C57.6455 20.3648 57.352 19.7105 57.352 18.7844V11.2336C57.8331 11.2336 58.4369 11.2336 59.1585 11.2576C59.8802 11.2817 60.4695 11.2793 60.8785 11.2793C61.1936 11.2793 61.3307 11.0748 61.3307 10.6924V6.19411C61.3307 5.968 61.1936 5.85494 60.9001 5.85494H57.352V0.721644C57.352 0.530252 57.276 0.346699 57.1407 0.211365C57.0053 0.0760301 56.8218 0 56.6304 0L50.9318 0C50.7404 0 50.5568 0.0760301 50.4215 0.211365C50.2862 0.346699 50.2101 0.530252 50.2101 0.721644V5.85494H47.2923C47.2365 5.85225 47.1811 5.86583 47.1328 5.89401C47.0846 5.92219 47.0456 5.96377 47.0205 6.0137C46.9774 6.12082 46.9546 6.23501 46.9531 6.35047V10.7814C46.9531 11.0075 46.9988 11.1446 47.0902 11.1879C47.1962 11.2377 47.3124 11.2616 47.4294 11.2576H50.2318V18.3779C50.2318 19.4387 50.2775 20.5236 50.3665 21.6084C50.4358 22.6374 50.735 23.6378 51.2421 24.5359C51.7677 25.43 52.5347 26.1579 53.4551 26.6359C54.451 27.1795 55.8302 27.4513 57.5926 27.4513C58.4335 27.4651 59.2694 27.319 60.0558 27.0208C60.8015 26.7489 61.4125 26.4795 61.8864 26.2534C62.0093 26.2024 62.1128 26.1136 62.182 25.9999C62.2512 25.8862 62.2824 25.7534 62.2712 25.6208C62.2496 25.462 62.2039 25.1902 62.1365 24.8053" fill="currentColor"/>
<path id="Vector_3" d="M87.156 5.85574H81.0605C80.8344 5.85574 80.7213 6.0121 80.7213 6.35127V7.48185C79.2059 6.14921 76.8341 5.60557 74.7774 5.60557H74.6643C73.3567 5.59939 72.0624 5.86906 70.8661 6.39698C69.685 6.93742 68.6223 7.70585 67.7389 8.65813C66.8175 9.65655 66.0964 10.8227 65.6149 12.0932C65.0833 13.4931 64.8221 14.9811 64.8452 16.4783V16.6828C64.8447 18.1912 65.0976 19.689 65.5933 21.1137C66.0485 22.3866 66.7553 23.5548 67.6716 24.5487C68.5549 25.4913 69.636 26.2266 70.8372 26.7016C72.0645 27.1807 73.3685 27.4333 74.686 27.4473H74.7533C75.0708 27.4473 75.386 27.4233 75.7035 27.4016C77.5318 27.191 79.2594 26.453 80.6756 25.2776V26.7906C80.6756 27.0312 80.8127 27.1755 81.1062 27.1755H87.0958C87.322 27.1755 87.435 26.9711 87.435 26.5886V6.28392C87.4567 5.9688 87.3677 5.85574 87.1632 5.85574M77.6928 19.8027C77.3008 20.1924 76.8347 20.4997 76.322 20.7062C75.8092 20.9128 75.2603 21.0146 74.7076 21.0055C73.5791 21.0191 72.4908 20.5869 71.6791 19.8027C71.2596 19.3967 70.9301 18.9069 70.7122 18.3653C70.4942 17.8237 70.3925 17.2422 70.4138 16.6588C70.4138 15.3478 70.7987 14.2533 71.5444 13.4282C72.2901 12.6031 73.3533 12.1629 74.7076 12.1629C75.2565 12.1494 75.8027 12.2442 76.3149 12.4419C76.8271 12.6396 77.2953 12.9364 77.6928 13.3151C78.4946 14.0833 78.8956 15.1682 78.8956 16.5698C78.8956 17.9264 78.489 19.0113 77.676 19.8027" fill="currentColor"/>
<path id="Vector_4" d="M4.08932 19.2148C4.89811 19.2148 5.68874 19.4547 6.36122 19.904C7.0337 20.3534 7.55784 20.992 7.86735 21.7392C8.17686 22.4865 8.25785 23.3087 8.10006 24.1019C7.94227 24.8952 7.5528 25.6238 6.9809 26.1957C6.409 26.7676 5.68035 27.1571 4.8871 27.3149C4.09385 27.4727 3.27163 27.3917 2.5244 27.0822C1.77718 26.7727 1.13851 26.2485 0.689174 25.5761C0.239834 24.9036 0 24.113 0 23.3042C0 22.2196 0.430837 21.1795 1.19773 20.4126C1.96463 19.6457 3.00476 19.2148 4.08932 19.2148Z" fill="currentColor"/>
</g>
</g>
</svg>
