<svg version="1.1" id="Layer_1" xmlns="http://www.w3.org/2000/svg" xmlns:xlink="http://www.w3.org/1999/xlink" x="0px" y="0px"
	 width="100%" viewBox="0 0 1024 528" enable-background="new 0 0 1024 528" xml:space="preserve">
<path fill="currentColor" opacity="1.000000" stroke="none"
	d="
M478.291779,292.992615
	C473.706635,320.217133 462.362701,343.718475 444.413300,364.126221
	C439.219147,370.031738 433.538818,374.390991 425.543640,376.155945
	C390.623077,383.864868 357.077209,380.356873 324.819916,364.859894
	C323.934906,364.434753 323.095734,363.898285 322.290161,363.335083
	C322.090881,363.195801 322.107178,362.748138 321.959717,362.203369
	C325.163116,361.319550 328.162292,362.740417 331.193542,363.004181
	C370.157440,366.394287 399.837677,351.039703 420.955383,318.569000
	C429.939819,304.754456 438.899170,290.920929 444.654083,275.278412
	C454.737396,247.870895 456.931000,219.911743 451.329712,191.297287
	C451.172577,190.494492 450.754089,189.715363 452.179718,188.058075
	C474.953766,219.703445 483.829956,254.260895 478.291779,292.992615
z"/>
<path fill="currentColor" opacity="1.000000" stroke="none"
	d="
M216.849701,211.969452
	C223.527664,197.982040 232.304901,185.931473 242.577789,174.871857
	C246.690704,170.443954 251.320328,167.711029 257.331665,166.382767
	C292.282043,158.660141 325.777893,162.517334 357.930756,178.200623
	C358.526886,178.491409 359.127197,178.795456 359.660400,179.182983
	C359.881866,179.343948 359.931946,179.740768 360.218384,180.388641
	C357.745850,181.331635 355.375366,180.284225 353.109619,180.047485
	C318.319275,176.412216 289.899597,188.299500 268.386658,215.683792
	C254.675491,233.137070 242.797119,251.809006 235.931274,273.250488
	C228.011841,297.982269 226.212448,323.066650 230.975006,348.608612
	C231.127106,349.424316 231.273056,350.251373 231.296677,351.076721
	C231.309448,351.523376 231.057114,351.977570 230.906296,352.489838
	C206.821762,325.678345 190.929565,265.897705 216.849701,211.969452
z"/>
<path fill="currentColor" opacity="1.000000" stroke="none"
	d="
M282.707550,342.275299
	C299.517059,355.524261 316.715210,367.401855 336.612427,374.914917
	C363.442078,385.045654 390.927124,387.217743 419.075165,382.312744
	C420.182037,382.119904 421.293335,381.485077 422.394806,382.481476
	C422.365967,384.547211 420.526825,385.052368 419.236755,385.930573
	C364.848999,422.953186 290.040192,415.673462 243.571365,369.049347
	C236.954910,362.410736 236.406815,353.823578 234.972610,345.643799
	C229.486740,314.355804 234.342575,284.395630 247.707870,255.710266
	C248.196411,254.661697 248.799271,253.661819 249.414001,252.680038
	C249.556885,252.451874 249.967133,252.391129 251.027588,251.882462
	C245.292297,287.815979 255.119217,318.067017 282.707550,342.275299
z"/>
<path fill="currentColor" opacity="1.000000" stroke="none"
	d="
M357.459167,134.226227
	C389.233978,138.105972 416.177734,151.034531 438.841675,172.984940
	C441.675568,175.729584 443.599030,178.766129 444.627563,182.626022
	C453.946350,217.597549 450.790894,251.480576 436.002991,284.388763
	C435.602783,285.279358 435.007233,286.092102 434.424530,286.883545
	C434.284393,287.073883 433.830994,287.033569 433.419739,287.121063
	C431.913422,284.844788 433.525574,282.651459 433.663910,280.458008
	C435.975403,243.803909 422.247131,214.943481 391.893494,194.096466
	C376.501343,183.525116 360.888367,173.428802 343.109192,167.101990
	C317.104492,157.848083 290.579376,155.881668 263.471069,160.575592
	C262.680115,160.712540 261.893860,161.194901 261.125031,160.529785
	C268.821625,145.587448 324.770844,130.183945 357.459167,134.226227
z"/>
<path fill="currentColor" opacity="1.000000" stroke="none"
	d="
M540.776855,238.016678
	C540.599792,232.200073 540.969910,226.852020 539.923157,221.577744
	C539.279236,218.333786 540.680786,216.892242 543.924622,216.994644
	C545.754883,217.052444 547.589233,216.974716 549.421753,216.972168
	C560.699585,216.956512 559.227539,216.236801 560.871216,227.643219
	C567.504028,219.108704 575.863220,214.917526 585.944641,215.042953
	C596.020813,215.168304 604.597961,218.545761 609.757629,228.859283
	C614.463074,223.642273 619.045471,219.134399 625.387268,217.017090
	C633.276001,214.383286 641.135437,214.323166 648.829102,217.369263
	C658.078979,221.031479 661.637634,228.908188 663.298889,238.023788
	C664.441833,244.294891 664.271362,250.623795 664.265747,256.949707
	C664.254944,269.111267 664.176025,281.273743 664.310913,293.433777
	C664.350464,296.996826 663.251648,298.676422 659.467224,298.462799
	C655.647705,298.247223 651.795776,298.237915 647.977722,298.467010
	C643.971130,298.707458 642.782532,296.927856 642.819336,293.143707
	C642.955200,279.150909 642.877930,265.155975 642.873291,251.161865
	C642.872681,249.329681 642.915710,247.491516 642.789246,245.666458
	C642.406616,240.143204 641.343750,234.967896 635.207458,232.851852
	C629.057251,230.731003 622.077881,232.638153 617.958618,237.617065
	C614.505615,241.790634 613.308411,246.734558 613.305054,252.044708
	C613.296326,265.705627 613.166870,279.368042 613.343445,293.026550
	C613.396729,297.147430 611.995117,298.768524 607.865417,298.468384
	C604.385315,298.215454 600.859802,298.234100 597.376892,298.467621
	C593.265747,298.743256 591.779053,297.106140 591.831970,292.986633
	C592.005371,279.494446 591.913147,265.998749 591.907715,252.504410
	C591.906799,250.172852 591.898682,247.837845 591.778076,245.510437
	C591.413208,238.470062 588.543091,234.038559 583.502686,232.609787
	C577.048584,230.780304 569.702698,233.149826 566.049561,238.334625
	C563.484924,241.974487 562.239746,246.071075 562.225098,250.529114
	C562.179138,264.522522 561.992004,278.517883 562.179626,292.508209
	C562.240784,297.067657 560.764282,298.547089 556.162231,298.515045
	C540.777527,298.407898 540.776917,298.567078 540.778381,282.994324
	C540.779785,268.167358 540.779907,253.340408 540.776855,238.016678
z"/>
<path fill="currentColor" opacity="1.000000" stroke="none"
	d="
M765.179810,216.823776
	C778.995911,213.026764 790.914917,215.390518 800.704468,225.618179
	C801.085266,225.271744 801.498901,225.077957 801.516479,224.853134
	C802.134277,216.964615 802.129333,216.918610 810.067139,216.967545
	C824.815002,217.058441 822.215515,215.654678 822.312866,229.050079
	C822.466614,250.198868 822.255615,271.350525 822.450623,292.498627
	C822.492188,297.008362 821.178101,299.051117 816.527161,298.448029
	C815.053284,298.256897 813.533447,298.420929 812.034668,298.420197
	C802.602478,298.415649 802.602478,298.415436 801.080750,288.917358
	C795.397156,295.080383 788.767090,298.688965 780.621399,299.433319
	C759.252563,301.386139 743.266357,288.540405 740.808777,267.104218
	C739.760010,257.956360 739.924194,248.834488 742.938843,239.994247
	C746.691772,228.989136 753.624634,220.940826 765.179810,216.823776
M773.997986,233.246506
	C768.211731,235.378693 764.997131,239.788834 763.033569,245.406357
	C760.772095,251.875885 760.618408,258.581909 761.648315,265.146423
	C763.474121,276.783325 770.749268,283.231995 781.317566,283.485046
	C791.458313,283.727844 798.523193,277.494232 801.015869,265.946198
	C802.186951,260.520782 802.185852,254.997055 801.086609,249.591415
	C798.159302,235.196274 789.256348,229.660553 773.997986,233.246506
z"/>
<path fill="currentColor" opacity="1.000000" stroke="none"
	d="
M387.187744,278.914642
	C388.537903,281.634277 389.911591,283.941803 390.900726,286.403809
	C393.010773,291.655853 391.025238,297.244965 386.364258,299.733887
	C381.223541,302.478973 375.708191,301.151917 372.472931,295.981964
	C370.006744,292.040924 368.071716,287.771057 365.789124,283.709991
	C364.773804,281.903625 364.285828,279.340729 361.572571,279.281219
	C358.831757,279.221039 358.268250,281.727020 357.266357,283.562683
	C355.273315,287.214325 353.363647,290.911743 351.439453,294.600616
	C349.345978,298.613983 346.117676,301.137207 341.545959,301.073364
	C336.967957,301.009491 333.869781,298.358002 331.840851,294.311676
	C329.752533,290.146820 327.664337,285.972656 325.343262,281.936462
	C323.229431,278.260620 320.801086,278.190247 318.631012,281.828979
	C316.248047,285.824707 314.292236,290.073334 312.097015,294.183319
	C308.793365,300.368622 303.063507,302.669373 297.621613,300.048828
	C291.929962,297.308075 289.945801,290.999268 293.158539,284.704620
	C299.438751,272.399811 305.918610,260.196899 312.315033,247.951416
	C314.344879,244.065491 317.596680,241.844284 321.926636,241.896378
	C326.208496,241.947891 329.511902,244.049591 331.515656,247.996628
	C333.700500,252.300446 335.829865,256.640076 338.214600,260.832611
	C340.470886,264.799225 342.778290,264.768280 345.085052,260.768066
	C347.412109,256.732727 349.509399,252.563721 351.667725,248.432556
	C353.758698,244.430450 356.931458,241.860901 361.514587,241.875198
	C366.087280,241.889481 369.283966,244.448822 371.364441,248.449097
	C376.587097,258.491058 381.812653,268.531494 387.187744,278.914642
z"/>
<path fill="currentColor" opacity="1.000000" stroke="none"
	d="
M681.024414,233.305466
	C673.969666,233.168732 673.965881,233.168747 673.948303,226.497452
	C673.944397,224.998596 674.036255,223.497452 673.980835,222.001190
	C673.847839,218.407104 675.559204,217.084641 679.116699,216.944382
	C689.649475,216.529099 689.586975,216.418213 689.676514,205.735352
	C689.748596,197.127228 688.455383,198.129547 697.472412,195.164978
	C701.377930,193.880936 705.142456,192.002060 710.384094,191.646774
	C710.384094,197.741470 710.377991,203.626266 710.385620,209.511047
	C710.395264,216.917572 710.400146,216.917618 717.725647,216.947632
	C719.058105,216.953079 720.390625,216.956223 721.723083,216.963455
	C732.069946,217.019653 734.586853,220.408081 732.071106,230.585403
	C731.478088,232.984360 729.913513,233.258209 727.985046,233.268829
	C723.488098,233.293594 718.990906,233.319473 714.493958,233.310852
	C712.329346,233.306717 710.396057,233.533340 710.408386,236.386063
	C710.457153,247.709137 710.012695,259.062714 710.710999,270.345612
	C711.267700,279.339935 715.747925,282.675537 724.737671,281.907257
	C732.262207,281.264221 732.151978,280.928284 732.184570,289.276123
	C732.221313,298.697723 732.217041,298.700409 722.524902,299.442505
	C710.739502,300.344940 700.191711,298.281769 693.613281,287.079163
	C690.853882,282.380127 689.718262,277.185394 689.687378,271.776245
	C689.629395,261.616394 689.665100,251.456039 689.663818,241.295898
	C689.662842,233.329224 689.664185,233.329224 681.024414,233.305466
z"/>
<path fill="currentColor" opacity="1.000000" stroke="none"
	d="
M543.777649,337.353943
	C545.535034,344.293274 550.076477,347.374451 556.532410,347.779816
	C560.173340,348.008453 563.846069,347.742340 567.504150,347.679535
	C570.725647,347.624268 571.700745,345.825439 571.693542,342.794891
	C571.685791,339.515137 569.861389,338.872070 567.197571,338.971527
	C567.031433,338.977722 566.856567,338.999847 566.699219,338.960632
	C564.218567,338.341766 559.602661,340.473785 559.770813,336.658905
	C559.922729,333.213165 564.475220,335.401001 567.033020,334.921844
	C568.478394,334.651062 570.023865,334.845093 571.518250,334.933167
	C572.334412,334.981232 573.480286,334.960938 573.891724,335.457184
	C576.640503,338.772583 574.860168,342.758698 575.283264,346.435486
	C575.567749,348.907440 574.038635,349.911682 571.833130,350.499176
	C564.943481,352.334351 558.053650,352.745544 551.153015,350.722717
	C544.214844,348.688873 539.953735,343.391754 539.684692,336.657196
	C539.377319,328.963409 542.485779,323.854858 549.622131,321.057434
	C556.898743,318.204987 564.274292,318.601654 571.589233,321.132294
	C573.694092,321.860535 575.067261,323.007812 573.963745,326.552795
	C568.182007,323.293152 562.072937,322.530304 555.760071,323.289520
	C547.723022,324.256134 543.825867,328.634338 543.777649,337.353943
z"/>
<path fill="currentColor" opacity="1.000000" stroke="none"
	d="
M655.556152,332.712158
	C656.639282,343.069885 651.865234,349.392853 642.241638,351.356018
	C637.734375,352.275452 633.349243,352.141724 628.926025,351.208405
	C621.476074,349.636444 616.735596,344.326935 615.947998,336.727417
	C615.238403,329.881042 619.235352,323.422272 626.287170,320.837402
	C633.411804,318.225830 640.623230,318.407074 647.600830,321.579407
	C652.182007,323.662201 654.786682,327.312622 655.556152,332.712158
M620.229614,334.702057
	C620.479370,342.042542 623.054443,345.931091 629.080750,347.345551
	C633.647400,348.417358 638.364807,348.453979 642.920227,347.326019
	C647.638855,346.157623 650.809265,343.150085 651.601990,338.139557
	C652.535461,332.240021 650.868469,327.672516 646.186707,325.300140
	C639.435791,321.879272 632.400696,321.912384 625.653564,325.445526
	C622.404053,327.147064 620.500366,330.075287 620.229614,334.702057
z"/>
<path fill="currentColor" opacity="1.000000" stroke="none"
	d="
M611.063171,326.530884
	C612.160645,332.050323 609.762146,335.537720 605.601685,337.956116
	C606.201538,340.837433 608.249634,342.460754 609.575684,344.529358
	C610.799866,346.439056 612.999268,347.763672 613.185547,350.397858
	C611.261047,352.068085 609.822876,351.093811 608.564514,349.588531
	C607.390930,348.184601 606.039673,346.823669 605.272095,345.204193
	C602.053284,338.413239 596.350403,337.708160 589.813904,338.269928
	C586.977356,338.513702 586.018005,339.695496 586.068115,342.322876
	C586.109375,344.483337 586.038574,346.654297 585.859741,348.807495
	C585.757935,350.031860 585.157043,351.129333 583.651978,350.948456
	C582.473450,350.806793 581.972778,349.805603 581.968872,348.782318
	C581.935120,339.957153 581.935242,331.131500 582.004272,322.306641
	C582.016235,320.776642 583.062927,319.807404 584.598389,319.819855
	C591.233704,319.873718 597.903015,318.939850 604.489380,320.557373
	C607.630249,321.328674 609.946350,322.947357 611.063171,326.530884
M606.963806,327.294983
	C603.829529,323.973663 592.150085,321.564087 587.916626,323.663361
	C584.557678,325.328979 586.478882,328.676636 586.137390,331.268311
	C585.893738,333.117249 586.726685,334.596008 588.878174,334.571533
	C593.492371,334.519073 598.129639,335.196716 602.710205,333.956879
	C605.858582,333.104736 607.639160,331.396973 606.963806,327.294983
z"/>
<path fill="currentColor" opacity="1.000000" stroke="none"
	d="
M722.374634,319.953674
	C726.211243,320.946014 729.634338,321.792572 731.153320,325.584198
	C733.821777,332.245178 729.979980,338.624725 722.664368,339.221191
	C718.526062,339.558594 714.337952,339.530090 710.184570,339.361572
	C706.559509,339.214539 705.127258,340.561340 705.095093,344.267792
	C705.075256,346.560516 706.688293,350.822418 702.857910,350.654602
	C699.490295,350.507080 700.981689,346.333038 700.904480,343.931122
	C700.701294,337.610199 700.958801,331.275208 700.795471,324.951965
	C700.698303,321.193054 701.947021,319.424774 705.967651,319.636841
	C711.282410,319.917175 716.617554,319.811554 722.374634,319.953674
M713.549316,335.751465
	C716.542297,335.699890 719.561829,335.877563 722.520996,335.534393
	C725.689148,335.166962 727.555664,333.219635 727.697571,329.850677
	C727.831848,326.664368 726.256287,324.987396 723.259033,324.177856
	C718.165405,322.802155 713.005493,323.546906 707.872192,323.467468
	C706.592346,323.447662 705.797791,324.147064 705.352417,325.441772
	C703.087524,332.025635 705.662170,335.724243 713.549316,335.751465
z"/>
<path fill="currentColor" opacity="1.000000" stroke="none"
	d="
M665.335327,328.072449
	C665.337463,332.050537 665.313599,335.543091 665.355652,339.034882
	C665.369507,340.189240 665.336853,341.414734 665.697571,342.481995
	C667.205322,346.943573 673.299011,348.935791 681.490295,347.760437
	C686.850708,346.991333 689.449280,344.443329 689.614014,339.412384
	C689.766296,334.760834 689.623474,330.100281 689.683167,325.444672
	C689.705750,323.685516 689.298218,321.796295 690.566895,320.302490
	C693.387817,319.927826 693.253235,321.889801 693.267334,323.488892
	C693.321777,329.641144 693.359192,335.795929 693.236206,341.946411
	C693.176575,344.926270 691.914001,347.591858 689.255615,349.036224
	C681.918152,353.022888 674.308044,353.247192 666.770874,349.675171
	C663.578552,348.162262 661.727234,345.379822 661.704834,341.679230
	C661.668640,335.692749 661.633606,329.705536 661.701111,323.719757
	C661.716431,322.359619 661.239929,320.283508 663.408936,320.216522
	C665.591248,320.149139 665.193726,322.193787 665.300171,323.597107
	C665.400635,324.920197 665.330261,326.256256 665.335327,328.072449
z"/>
</svg>
